<?xml version="1.0" encoding="UTF-8"?>
<svg xmlns="http://www.w3.org/2000/svg" width="800" height="800" viewBox="0 0 800 800" role="img" aria-label="Slicker Brush — PAWRA">
  <defs>
    <linearGradient id="bg-slicker-brush-dog" x1="0" y1="0" x2="1" y2="1">
      <stop offset="0%" stop-color="#F5F0E8"/>
      <stop offset="100%" stop-color="#EDE6DA"/>
    </linearGradient>
    <radialGradient id="glow-slicker-brush-dog" cx="50%" cy="42%" r="55%">
      <stop offset="0%" stop-color="#FFFFFF" stop-opacity="0.55"/>
      <stop offset="100%" stop-color="#F5F0E8" stop-opacity="0"/>
    </radialGradient>
    <filter id="soft-slicker-brush-dog" x="-20%" y="-20%" width="140%" height="140%">
      <feDropShadow dx="0" dy="18" stdDeviation="18" flood-color="#1B3A2D" flood-opacity="0.12"/>
    </filter>
  </defs>
  <rect width="800" height="800" fill="url(#bg-slicker-brush-dog)"/>
  <rect width="800" height="800" fill="url(#glow-slicker-brush-dog)"/>
  <circle cx="120" cy="120" r="80" fill="#2EE8A0" opacity="0.08"/>
  <circle cx="700" cy="680" r="100" fill="#ADB5BD" opacity="0.08"/>
  <g filter="url(#soft-slicker-brush-dog)">
    
        <rect x="250" y="360" width="220" height="90" rx="20" fill="#ADB5BD" stroke="#1B3A2D" stroke-width="3"/>
        <line x1="280" y1="450" x2="280" y2="510" stroke="#1B3A2D" stroke-width="4" stroke-linecap="round"/><line x1="302" y1="450" x2="302" y2="510" stroke="#1B3A2D" stroke-width="4" stroke-linecap="round"/><line x1="324" y1="450" x2="324" y2="510" stroke="#1B3A2D" stroke-width="4" stroke-linecap="round"/><line x1="346" y1="450" x2="346" y2="510" stroke="#1B3A2D" stroke-width="4" stroke-linecap="round"/><line x1="368" y1="450" x2="368" y2="510" stroke="#1B3A2D" stroke-width="4" stroke-linecap="round"/><line x1="390" y1="450" x2="390" y2="510" stroke="#1B3A2D" stroke-width="4" stroke-linecap="round"/><line x1="412" y1="450" x2="412" y2="510" stroke="#1B3A2D" stroke-width="4" stroke-linecap="round"/><line x1="434" y1="450" x2="434" y2="510" stroke="#1B3A2D" stroke-width="4" stroke-linecap="round"/>
        <rect x="470" y="375" width="120" height="60" rx="16" fill="#1B3A2D"/>
      
  </g>
  <text x="400" y="700" text-anchor="middle" font-family="Inter, system-ui, sans-serif" font-size="24" font-weight="600" fill="#1B3A2D">Slicker Brush</text>
  <text x="400" y="770" text-anchor="middle" font-family="Inter, system-ui, sans-serif" font-size="12" letter-spacing="4" fill="#8A857C">PAWRA CARE</text>
</svg>
